<svg width="800" height="400" viewBox="0 0 800 400" fill="none" xmlns="http://www.w3.org/2000/svg">
  <rect width="800" height="400" rx="20" fill="#F8FAF0" />
  <rect x="50" y="40" width="700" height="60" rx="12" fill="white" />
  <rect x="70" y="55" width="100" height="30" rx="6" fill="#6366F1" fill-opacity="0.1" />
  <rect x="190" y="55" width="100" height="30" rx="6" fill="#E2E8F0" />
  <rect x="50" y="130" width="220" height="200" rx="20" fill="white" stroke="#6366F1" stroke-width="2" />
  <rect x="75" y="155" width="120" height="20" rx="4" fill="#6366F1" />
  <rect x="75" y="190" width="170" height="12" rx="2" fill="#94A3B8" />
  <rect x="75" y="220" width="170" height="40" rx="8" fill="#F1F5F9" />
  <rect x="290" y="130" width="220" height="200" rx="20" fill="white" />
  <rect x="315" y="155" width="120" height="20" rx="4" fill="#A855F7" />
  <rect x="315" y="190" width="170" height="12" rx="2" fill="#94A3B8" />
  <rect x="315" y="220" width="170" height="40" rx="8" fill="#F1F5F9" />
  <rect x="530" y="130" width="220" height="200" rx="20" fill="white" />
  <rect x="555" y="155" width="120" height="20" rx="4" fill="#EC4899" />
  <rect x="555" y="190" width="170" height="12" rx="2" fill="#94A3B8" />
  <rect x="555" y="220" width="170" height="40" rx="8" fill="#F1F5F9" />
</svg>
